PathFileType	4	(X/Y/Z)	TVC_41_Cal_03_0_static_RCNL2025.trc
DataRate	CameraRate	NumFrames	NumMarkers	Units	OrigDataRate	OrigDataStartFrame	OrigNumFrames
100	100	12	27	mm	100	176	234
Frame#	Time	R_Shoulder			L_Shoulder			C7			J_Notch			R_Elbow			L_Elbow			R_Wrist			L_Wrist			R_Asis			L_Asis			R_Psis			L_Psis			Sacral			Thoracic			Sternum			R_Thigh_Lateral			R_Knee_Lateral			R_Shank_Lateral			R_Ankle_Lateral			R_Heel			R_Toe			L_Thigh_Lateral			L_Knee_Lateral			L_Shank_Lateral			L_Ankle_Lateral			L_Heel			L_Toe		
		X1	Y1	Z1	X2	Y2	Z2	X3	Y3	Z3	X4	Y4	Z4	X5	Y5	Z5	X6	Y6	Z6	X7	Y7	Z7	X8	Y8	Z8	X9	Y9	Z9	X10	Y10	Z10	X11	Y11	Z11	X12	Y12	Z12	X13	Y13	Z13	X14	Y14	Z14	X15	Y15	Z15	X16	Y16	Z16	X17	Y17	Z17	X18	Y18	Z18	X19	Y19	Z19	X20	Y20	Z20	X21	Y21	Z21	X22	Y22	Z22	X23	Y23	Z23	X24	Y24	Z24	X25	Y25	Z25	X26	Y26	Z26	X27	Y27	Z27
176	1.75000000	-276.016846	1277.300781	-70.729279	-283.782440	1249.079224	-406.670929	-353.216644	1310.395630	-235.924133	-216.735672	1221.739258	-231.826294	-243.096146	986.621216	-13.987736	-298.980438	950.989624	-447.140106	-184.579758	783.721130	-26.045838	-227.270363	757.295532	-456.153931	-220.513306	859.364990	-87.824440	-222.167099	859.372925	-332.161591	-355.955902	882.340576	-154.902679	-392.986206	884.220276	-243.232895	-374.471054	883.280426	-199.067787	-358.536224	1014.080811	-217.812729	-167.093887	1045.996460	-229.969910	-269.512512	640.869690	5.430175	-261.846039	412.790710	-58.431549	-296.145813	286.203308	-1.609644	-282.106537	73.477058	-65.193924	-317.800842	45.835556	-121.407791	-172.838257	45.448280	-40.131798	-314.426086	593.324951	-417.835388	-307.915588	409.108276	-340.151001	-312.644379	269.269714	-379.255219	-337.881439	66.684731	-300.354156	-376.075531	43.782730	-258.376434	-212.528397	39.338932	-289.361481
177	1.76000000	-276.034393	1277.322510	-70.766365	-283.718384	1249.020386	-406.636383	-353.192200	1310.441528	-236.052643	-217.142242	1221.527100	-230.999130	-243.151260	986.614441	-14.015225	-299.083618	951.005920	-447.199066	-184.790474	783.595703	-26.075842	-227.304802	757.272858	-456.228592	-220.584747	859.353516	-87.887207	-222.275818	859.360962	-332.015778	-355.946198	882.310181	-154.928177	-392.975647	884.212646	-243.239059	-374.460922	883.261414	-199.083618	-358.593658	1014.123474	-217.857925	-167.053101	1046.067139	-229.992706	-269.670959	640.815674	5.363275	-261.924683	412.785126	-58.448463	-296.029114	286.196014	-1.714750	-282.196289	73.552986	-65.096901	-317.855530	45.819386	-121.417877	-172.854416	45.584492	-40.275448	-314.408020	593.334167	-417.842865	-307.912628	409.117981	-340.171600	-312.747803	269.258392	-379.296448	-337.919067	66.789749	-300.306641	-376.095062	43.787445	-258.309601	-212.515244	39.355259	-289.290802
178	1.77000000	-276.045410	1277.295044	-70.777420	-283.667328	1249.028442	-406.654297	-353.129791	1310.444336	-236.017349	-216.960083	1221.507080	-231.569519	-242.909302	986.666748	-13.954815	-298.993530	950.983643	-447.158264	-184.871605	783.676392	-26.160227	-227.316803	757.233185	-456.297470	-220.496948	859.373901	-87.878654	-222.142578	859.335205	-332.228607	-355.911926	882.385681	-155.155457	-392.930603	884.202209	-243.324829	-374.421265	883.293945	-199.240143	-358.442596	1014.161804	-217.898743	-166.994965	1046.018433	-230.019928	-269.533661	640.893860	5.374361	-261.905670	412.787659	-58.569443	-296.080139	286.249268	-1.658703	-282.128876	73.515358	-65.172966	-317.815918	45.897320	-121.373718	-172.775925	45.518456	-40.209606	-314.337433	593.368591	-417.922638	-307.894440	409.118256	-340.228821	-312.784119	269.240936	-379.287811	-337.937622	66.685707	-300.280060	-376.011444	43.823215	-258.416901	-212.517914	39.345516	-289.300201
179	1.78000000	-276.038940	1277.243286	-70.791031	-283.569519	1249.012939	-406.663971	-353.050629	1310.437744	-236.047089	-216.825928	1221.531372	-231.712936	-242.569901	986.691833	-14.052737	-298.972900	950.968567	-447.273102	-184.985710	783.596497	-26.189398	-227.322830	757.213135	-456.293915	-220.487534	859.409363	-87.945107	-221.981018	859.331848	-332.286743	-355.826538	882.450684	-155.297546	-392.873138	884.248230	-243.343918	-374.349838	883.349457	-199.320732	-358.484558	1014.167725	-217.963318	-166.877090	1046.012573	-230.009048	-269.427887	640.914185	5.313619	-261.936859	412.810425	-58.586033	-295.859772	286.559235	-1.602517	-282.090363	73.558723	-65.203354	-317.798553	45.848362	-121.391716	-172.868271	45.505283	-40.297318	-314.300018	593.348572	-417.903748	-307.897308	409.113403	-340.243378	-312.773132	269.289886	-379.349274	-338.055969	66.781288	-300.267517	-376.160400	43.909325	-258.288239	-212.508606	39.331127	-289.305634
180	1.79000000	-276.094330	1277.201050	-70.840019	-283.462982	1249.000000	-406.763397	-352.969025	1310.430664	-236.090729	-216.653076	1221.586182	-231.760376	-242.406998	986.707642	-14.005738	-298.941345	950.954651	-447.264526	-185.034889	783.541229	-26.179024	-227.282516	757.186768	-456.338943	-220.444901	859.388977	-88.003853	-221.878677	859.371704	-332.386383	-355.816254	882.435974	-155.281494	-392.829895	884.204285	-243.475891	-374.323074	883.320129	-199.378693	-358.403839	1014.115051	-218.046844	-166.889832	1045.994019	-229.921234	-269.404968	640.905640	5.271561	-265.045135	414.314270	-58.555424	-296.029022	286.300537	-1.594158	-282.064819	73.527817	-65.171402	-317.813385	45.878944	-121.371330	-172.840164	45.568119	-40.294216	-314.278625	593.366760	-417.925232	-307.918945	409.106873	-340.263824	-312.787811	269.378143	-379.455597	-337.977875	66.755211	-300.257080	-376.170044	43.882568	-258.273529	-212.501129	39.351028	-289.338196
181	1.80000000	-275.997925	1277.166870	-70.894714	-283.412354	1248.979614	-406.750366	-352.730591	1310.352783	-236.432083	-216.692703	1221.540771	-231.631210	-242.472290	986.664856	-14.145823	-298.833740	950.987061	-447.325897	-185.096786	783.465302	-26.183754	-227.200241	757.180725	-456.358795	-220.481918	859.378357	-88.113335	-221.832336	859.398010	-332.441010	-355.688690	882.460999	-155.291321	-392.810791	884.269287	-243.509033	-374.249741	883.365143	-199.400177	-358.358246	1014.175171	-218.103302	-166.926651	1045.983643	-229.903107	-269.478149	640.779846	5.252835	-265.479767	414.517029	-58.530197	-296.082275	286.205322	-1.682919	-282.063324	73.556824	-65.126923	-317.864410	45.951157	-121.379402	-172.881638	45.607376	-40.301487	-314.277893	593.385986	-417.928558	-307.848206	409.135101	-340.258057	-312.851959	269.333344	-379.425446	-337.968445	66.687836	-300.299896	-376.055847	43.786991	-258.375397	-212.484299	39.315369	-289.296844
182	1.81000000	-276.072784	1277.164673	-70.927589	-283.397247	1248.960693	-406.828522	-352.621094	1310.335571	-236.510849	-216.783890	1221.536133	-231.682480	-242.605591	986.644531	-14.187587	-298.807281	950.903931	-447.355164	-185.240356	783.409302	-26.237004	-227.145370	757.120789	-456.344894	-220.415009	859.353210	-88.200500	-221.763077	859.377014	-332.529633	-355.615662	882.374817	-155.201218	-392.741058	884.273682	-243.549210	-374.178360	883.324249	-199.375214	-358.285126	1014.192078	-218.161102	-166.818558	1045.891479	-229.947571	-269.568817	640.803101	5.348021	-265.395355	414.474548	-58.662460	-296.128937	286.213409	-1.613839	-282.083893	73.630066	-65.151138	-317.859375	45.925468	-121.422325	-172.839676	45.560947	-40.227486	-314.255981	593.404724	-417.972382	-307.864807	409.149353	-340.286835	-312.847839	269.308319	-379.375916	-338.011658	66.803230	-300.307922	-376.085205	43.830647	-258.334778	-212.481140	39.321091	-289.315796
183	1.82000000	-276.015961	1277.111938	-70.988083	-283.377686	1248.959961	-406.802399	-352.666748	1310.355835	-236.606567	-216.596786	1221.531128	-231.896759	-242.644897	986.606750	-14.232757	-298.675659	950.951599	-447.404419	-185.247246	783.393250	-26.356528	-227.027100	757.155365	-456.428131	-220.412704	859.353210	-88.164070	-221.588928	859.446533	-332.741516	-355.645355	882.373474	-155.270416	-392.716583	884.257568	-243.572571	-374.180969	883.315521	-199.421494	-358.249329	1014.138977	-218.195679	-166.747360	1045.871826	-229.984497	-269.423309	640.864807	5.231025	-265.117462	414.433197	-58.659840	-296.086792	286.233734	-1.670558	-282.083344	73.615074	-65.155647	-317.853027	45.918755	-121.427071	-172.857910	45.503696	-40.297230	-314.156342	593.404358	-418.019684	-307.865753	409.094421	-340.325165	-312.907562	269.265991	-379.424011	-337.888306	66.591072	-300.186554	-376.092590	43.830402	-258.343994	-212.476166	39.333328	-289.308563
184	1.83000000	-275.994568	1277.140747	-70.996719	-283.340302	1248.906860	-406.833527	-352.599396	1310.368164	-236.571945	-216.621475	1221.417969	-231.745651	-242.634293	986.619690	-14.252843	-298.649017	950.865601	-447.406677	-185.398849	783.290863	-26.492231	-226.936722	757.135437	-456.421432	-220.403702	859.356628	-88.203598	-221.686920	859.337708	-332.689667	-355.632324	882.380676	-155.186874	-392.679749	884.305298	-243.606506	-374.156036	883.342987	-199.396690	-358.247437	1014.134399	-218.196899	-166.702591	1045.902344	-230.057999	-269.381256	640.833557	5.172024	-265.230011	414.436005	-58.738735	-295.850800	286.588379	-1.879037	-282.073029	73.610138	-65.182152	-317.830139	45.896919	-121.452881	-172.846207	45.476887	-40.154739	-314.244324	593.357300	-418.004181	-307.875732	409.123901	-340.355652	-312.970367	269.399323	-379.494263	-337.992798	66.704300	-300.287750	-376.051025	43.842815	-258.342834	-212.510696	39.387691	-289.313599
185	1.84000000	-275.969604	1277.083496	-71.035240	-283.320282	1248.856079	-406.877686	-352.486938	1310.330078	-236.716263	-216.645691	1221.436279	-231.744080	-242.724564	986.467224	-14.387661	-298.564117	950.756104	-447.376465	-185.433640	783.254700	-26.672083	-226.757744	757.108459	-456.391769	-220.393188	859.318054	-88.336250	-221.565643	859.435425	-332.857880	-355.552673	882.423401	-155.321747	-392.673523	884.228699	-243.730652	-374.113098	883.326050	-199.526199	-358.245300	1014.169861	-218.282883	-166.691559	1045.816895	-230.094528	-269.320190	640.918884	5.142726	-265.172546	414.466827	-58.706120	-296.030762	286.341919	-1.682285	-282.052673	73.595757	-65.204132	-317.846008	45.926464	-121.429070	-172.884308	45.603668	-40.313786	-314.285736	593.300232	-418.080780	-307.836304	409.109039	-340.404510	-312.981262	269.387054	-379.542999	-337.951263	66.797401	-300.427734	-376.079132	43.802998	-258.400787	-212.469513	39.332958	-289.325592
186	1.85000000	-275.843018	1277.064575	-71.048004	-283.338501	1248.810425	-406.871826	-352.396942	1310.308350	-236.700073	-216.864380	1221.265869	-231.361084	-242.914169	986.386230	-14.449869	-298.397400	950.826782	-447.399658	-185.516281	783.225891	-26.749389	-226.571899	756.935852	-456.205841	-220.350983	859.392639	-88.366661	-221.629410	859.437622	-332.889465	-355.547119	882.347168	-155.438232	-392.658600	884.273926	-243.758194	-374.102859	883.310547	-199.598213	-358.206940	1014.245789	-218.329071	-166.688568	1045.791382	-230.177399	-269.445190	640.857849	5.216567	-265.129700	414.474915	-58.750637	-295.829956	286.586914	-1.783538	-282.055145	73.573280	-65.192032	-317.833466	45.892315	-121.449150	-172.851379	45.470402	-40.149899	-314.310852	593.324036	-418.103363	-307.914215	409.132141	-340.449249	-313.082977	269.387543	-379.640076	-338.054291	66.680473	-300.217896	-376.059387	43.854900	-258.366577	-212.482162	39.318993	-289.322723
187	1.86000000	-275.764679	1276.978882	-71.126801	-283.305695	1248.875854	-406.946625	-352.299561	1310.334595	-236.769485	-216.965500	1221.228271	-231.238663	-242.917938	986.383606	-14.496822	-298.359711	950.846130	-447.424469	-185.454018	783.167175	-26.901671	-226.381706	757.063080	-456.334198	-220.254181	859.347900	-88.445572	-221.703110	859.285400	-332.945343	-355.494904	882.390930	-155.581436	-392.660675	884.280701	-243.754166	-374.077789	883.335815	-199.667801	-358.197662	1014.216675	-218.376495	-166.645767	1045.727661	-230.238388	-269.308807	640.777161	5.034839	-264.998291	414.487061	-58.718723	-295.659485	286.700195	-1.836996	-282.055664	73.598434	-65.205460	-317.827362	45.893997	-121.455124	-172.779953	45.583797	-40.386642	-314.243591	593.287354	-418.081055	-307.929230	409.146393	-340.494476	-313.188721	269.393158	-379.703278	-338.028534	66.620018	-300.282898	-376.137878	43.895473	-258.333374	-212.468201	39.297638	-289.350464
